<?xml version="1.0" encoding="utf-8"?>
<!-- Generator: Adobe Illustrator 22.0.1, SVG Export Plug-In . SVG Version: 6.00 Build 0)  -->
<svg version="1.1" id="Capa_1" xmlns="http://www.w3.org/2000/svg" xmlns:xlink="http://www.w3.org/1999/xlink" x="0px" y="0px"
	 viewBox="0 0 299.9 62.4" style="enable-background:new 0 0 299.9 62.4;" xml:space="preserve">
<style type="text/css">
	.st0{fill:#A40133;}
</style>
<g>
	<g>
		<g>
			<path class="st0" d="M47.5,18.1L32.4,18H20.9v36.9h12.4V26.7h8.6c5.9,0,6,5.4,6,10.4v17.8h12.2V37.1
				C60.1,21.3,55.1,18.1,47.5,18.1 M90.2,18l-7.8,26.5l-0.5,1.2c0,0-7.9-27.2-8-27.8H60.7c0.4,1,13.5,36.4,13.6,36.9h14.3
				c0.2-0.5,13.2-35.9,13.6-36.9H90.2z M167.6,36.1c0,0,10.7-17,11.5-18.1h-13.2c-0.2,0.4-6.2,11.7-6.2,11.7s-5.5-11.3-5.7-11.7
				h-14.5c0.7,1.1,11.6,18.1,11.6,18.1l-6.9,10.3c-10.9,0.3-14.4,0.3-17.8,0.3l-1,0c-7,0-11.3-1.8-12-6.8l-0.1-0.4h26v-2
				c0-6.3-1.8-20.7-18.6-20.7c-11.9,0-19.8,7.5-19.8,19.3c0,11.5,8.7,19.3,21.5,19.3l12.1-0.2l11.5-0.3h7.1
				c0.2-0.4,6.5-12.2,6.5-12.2s5.3,11.8,5.6,12.2h14.7C179.1,53.8,167.6,36.1,167.6,36.1 M113.5,32.2c0.2-2.5,1.4-7.2,6.8-7.2
				c5.8,0,6.8,4.3,6.9,7.2H113.5z M0.7,54.9h12.3V18H0.7V54.9z M0.7,11.1h12.3V-0.1H0.7V11.1z"/>
		</g>
		<g>
			<path d="M202,54.9h-2.3V34.2h-7.6v-2.1h17.6v2.1H202V54.9z"/>
			<path d="M219,45.2c0-1.3-0.3-2.3-1-2.9c-0.7-0.6-1.7-1-3-1c-0.9,0-1.7,0.2-2.5,0.5c-0.8,0.3-1.4,0.8-2,1.3l-1.2-1.4
				c0.6-0.6,1.4-1.1,2.5-1.5c1-0.4,2.2-0.6,3.5-0.6c0.8,0,1.6,0.1,2.3,0.3c0.7,0.2,1.3,0.6,1.9,1c0.5,0.5,1,1,1.3,1.7
				c0.3,0.7,0.5,1.5,0.5,2.4v6.6c0,0.6,0,1.2,0.1,1.8c0,0.6,0.1,1.1,0.2,1.6h-2c-0.1-0.4-0.1-0.8-0.2-1.2c0-0.4-0.1-0.8-0.1-1.3
				h-0.1c-0.7,1-1.5,1.7-2.3,2.2c-0.9,0.4-1.9,0.7-3.1,0.7c-0.6,0-1.2-0.1-1.8-0.2c-0.6-0.2-1.2-0.4-1.7-0.8
				c-0.5-0.4-0.9-0.8-1.3-1.4c-0.3-0.6-0.5-1.3-0.5-2.1c0-1.2,0.3-2.1,0.9-2.8c0.6-0.7,1.4-1.2,2.4-1.5c1-0.3,2.1-0.5,3.4-0.6
				c1.3-0.1,2.6-0.1,4-0.1V45.2z M218.4,47.4c-0.9,0-1.8,0-2.7,0.1c-0.9,0.1-1.7,0.2-2.5,0.5c-0.7,0.2-1.3,0.6-1.8,1
				c-0.5,0.4-0.7,1-0.7,1.7c0,0.5,0.1,1,0.3,1.4c0.2,0.4,0.5,0.7,0.8,0.9c0.3,0.2,0.7,0.4,1.1,0.5c0.4,0.1,0.8,0.1,1.3,0.1
				c0.8,0,1.5-0.1,2.1-0.4c0.6-0.3,1.1-0.6,1.5-1.1c0.4-0.5,0.7-1,0.9-1.6c0.2-0.6,0.3-1.2,0.3-1.9v-1.1H218.4z"/>
			<path d="M226,41.6c0-0.6-0.1-1.2-0.1-1.7h2.1c0,0.4,0.1,0.9,0.1,1.4c0,0.5,0,0.9,0,1.2h0.1c0.4-0.9,1.1-1.6,1.9-2.1
				c0.9-0.5,1.8-0.8,2.9-0.8c0.3,0,0.5,0,0.8,0c0.2,0,0.5,0.1,0.7,0.1l-0.3,2.1c-0.1,0-0.3-0.1-0.6-0.1c-0.3,0-0.6-0.1-0.9-0.1
				c-0.6,0-1.1,0.1-1.7,0.3c-0.5,0.2-1,0.6-1.4,1c-0.4,0.5-0.7,1-1,1.8c-0.2,0.7-0.4,1.6-0.4,2.6v7.7H226V43.2
				C226,42.8,226,42.2,226,41.6z"/>
			<path d="M233.9,60.6c0.2,0.1,0.4,0.1,0.7,0.1c0.2,0,0.5,0,0.7,0c0.5,0,0.8-0.1,1.1-0.2c0.3-0.2,0.5-0.4,0.6-0.7
				c0.1-0.3,0.3-0.6,0.3-1c0.1-0.4,0.1-0.8,0.1-1.3V39.9h2.2v18.1c0,0.6-0.1,1.2-0.2,1.8c-0.1,0.6-0.4,1.1-0.7,1.5
				c-0.3,0.4-0.8,0.8-1.3,1.1c-0.5,0.3-1.3,0.4-2.1,0.4c-0.2,0-0.5,0-0.8,0c-0.3,0-0.6-0.1-0.9-0.2L233.9,60.6z M240.1,34.1
				c0,0.5-0.2,0.8-0.5,1.1c-0.3,0.3-0.7,0.4-1.1,0.4c-0.4,0-0.7-0.1-1.1-0.4c-0.3-0.3-0.5-0.7-0.5-1.1c0-0.5,0.2-0.8,0.5-1.1
				c0.3-0.3,0.7-0.4,1.1-0.4c0.4,0,0.7,0.1,1.1,0.4C239.9,33.2,240.1,33.6,240.1,34.1z"/>
			<path d="M258.5,46.9c0,0.2,0,0.3,0,0.5c0,0.2,0,0.4,0,0.5h-12.5c0,0.8,0.2,1.5,0.5,2.1c0.3,0.7,0.7,1.2,1.2,1.7
				c0.5,0.5,1.1,0.9,1.7,1.2c0.7,0.3,1.4,0.4,2.2,0.4c1.1,0,2.1-0.3,2.9-0.8c0.8-0.5,1.5-1.1,1.9-1.8l1.6,1.3c-0.9,1.1-1.9,2-3,2.4
				c-1.1,0.5-2.2,0.7-3.5,0.7c-1.1,0-2.2-0.2-3.1-0.6c-1-0.4-1.8-0.9-2.5-1.7c-0.7-0.7-1.2-1.5-1.6-2.5c-0.4-1-0.6-2-0.6-3.2
				c0-1.1,0.2-2.2,0.6-3.2c0.4-1,0.9-1.8,1.6-2.5c0.7-0.7,1.5-1.3,2.4-1.7c0.9-0.4,1.9-0.6,3-0.6c1.2,0,2.2,0.2,3.1,0.6
				c0.9,0.4,1.7,0.9,2.3,1.6c0.6,0.7,1.1,1.5,1.4,2.4C258.3,44.9,258.5,45.9,258.5,46.9z M256.2,46.2c-0.1-1.4-0.5-2.6-1.4-3.5
				c-0.8-0.9-2.1-1.4-3.6-1.4c-0.7,0-1.4,0.1-2,0.4c-0.6,0.3-1.2,0.6-1.6,1.1c-0.5,0.5-0.8,1-1.1,1.6c-0.3,0.6-0.4,1.2-0.5,1.9
				H256.2z"/>
			<path d="M269.6,41.7h-4.2v8.8c0,0.6,0.1,1,0.2,1.4c0.1,0.4,0.3,0.6,0.5,0.9c0.2,0.2,0.4,0.3,0.7,0.4c0.3,0.1,0.6,0.1,0.9,0.1
				c0.3,0,0.6,0,0.9-0.1c0.3-0.1,0.6-0.2,0.9-0.4l0.1,1.9c-0.4,0.2-0.8,0.3-1.2,0.3c-0.4,0.1-0.9,0.1-1.4,0.1
				c-0.4,0-0.8-0.1-1.3-0.2c-0.5-0.1-0.9-0.3-1.3-0.6c-0.4-0.3-0.7-0.7-0.9-1.2c-0.2-0.5-0.4-1.2-0.4-2v-9.4H260v-1.8h3.1v-4.2h2.2
				v4.2h4.2V41.7z"/>
			<path d="M282.6,45.2c0-1.3-0.3-2.3-1-2.9c-0.7-0.6-1.7-1-3-1c-0.9,0-1.7,0.2-2.5,0.5c-0.8,0.3-1.4,0.8-2,1.3l-1.2-1.4
				c0.6-0.6,1.4-1.1,2.5-1.5c1-0.4,2.2-0.6,3.5-0.6c0.8,0,1.6,0.1,2.3,0.3c0.7,0.2,1.3,0.6,1.9,1c0.5,0.5,1,1,1.3,1.7
				c0.3,0.7,0.5,1.5,0.5,2.4v6.6c0,0.6,0,1.2,0.1,1.8c0,0.6,0.1,1.1,0.2,1.6h-2c-0.1-0.4-0.1-0.8-0.2-1.2c0-0.4-0.1-0.8-0.1-1.3
				h-0.1c-0.7,1-1.5,1.7-2.3,2.2s-1.9,0.7-3.1,0.7c-0.6,0-1.2-0.1-1.8-0.2c-0.6-0.2-1.2-0.4-1.7-0.8c-0.5-0.4-0.9-0.8-1.3-1.4
				c-0.3-0.6-0.5-1.3-0.5-2.1c0-1.2,0.3-2.1,0.9-2.8c0.6-0.7,1.4-1.2,2.4-1.5c1-0.3,2.1-0.5,3.4-0.6c1.3-0.1,2.6-0.1,4-0.1V45.2z
				 M281.9,47.4c-0.9,0-1.8,0-2.7,0.1c-0.9,0.1-1.7,0.2-2.5,0.5c-0.7,0.2-1.3,0.6-1.8,1c-0.5,0.4-0.7,1-0.7,1.7c0,0.5,0.1,1,0.3,1.4
				c0.2,0.4,0.5,0.7,0.8,0.9c0.3,0.2,0.7,0.4,1.1,0.5c0.4,0.1,0.8,0.1,1.3,0.1c0.8,0,1.5-0.1,2.1-0.4c0.6-0.3,1.1-0.6,1.5-1.1
				c0.4-0.5,0.7-1,0.9-1.6c0.2-0.6,0.3-1.2,0.3-1.9v-1.1H281.9z"/>
			<path d="M297.7,43.4c-0.3-0.6-0.8-1.1-1.5-1.5c-0.7-0.4-1.4-0.6-2.2-0.6c-0.4,0-0.8,0-1.2,0.1c-0.4,0.1-0.7,0.2-1,0.4
				c-0.3,0.2-0.5,0.4-0.7,0.7c-0.2,0.3-0.3,0.7-0.3,1.1c0,0.7,0.3,1.3,0.9,1.6c0.6,0.4,1.5,0.7,2.7,0.9c1.8,0.4,3.1,0.9,3.9,1.6
				c0.8,0.7,1.3,1.6,1.3,2.8c0,0.9-0.2,1.6-0.5,2.2c-0.3,0.6-0.8,1.1-1.3,1.4c-0.5,0.4-1.1,0.6-1.8,0.8c-0.7,0.2-1.4,0.2-2,0.2
				c-1.1,0-2.2-0.2-3.3-0.7c-1.1-0.5-2-1.2-2.6-2.2l1.7-1.3c0.4,0.7,1,1.2,1.7,1.7c0.8,0.5,1.6,0.7,2.5,0.7c0.5,0,0.9,0,1.4-0.1
				c0.4-0.1,0.8-0.2,1.1-0.5c0.3-0.2,0.6-0.5,0.8-0.8c0.2-0.3,0.3-0.7,0.3-1.2c0-0.8-0.4-1.4-1.1-1.8c-0.8-0.4-1.9-0.8-3.3-1.1
				c-0.5-0.1-0.9-0.2-1.4-0.4c-0.5-0.2-1-0.4-1.4-0.7c-0.4-0.3-0.8-0.7-1.1-1.2c-0.3-0.5-0.4-1.1-0.4-1.8c0-0.8,0.1-1.4,0.5-2
				c0.3-0.5,0.7-1,1.2-1.4c0.5-0.4,1.1-0.6,1.7-0.8c0.6-0.2,1.3-0.3,2-0.3c1.1,0,2.1,0.2,3.1,0.7c1,0.5,1.7,1.1,2.2,2L297.7,43.4z"
				/>
		</g>
	</g>
</g>
</svg>
