<?xml version="1.0" encoding="utf-8"?>
<!-- Generator: Adobe Illustrator 22.0.1, SVG Export Plug-In . SVG Version: 6.00 Build 0)  -->
<svg version="1.1" id="Capa_1" xmlns="http://www.w3.org/2000/svg" xmlns:xlink="http://www.w3.org/1999/xlink" x="0px" y="0px"
	 viewBox="0 0 200 59.5" style="enable-background:new 0 0 200 59.5;" xml:space="preserve">
<style type="text/css">
	.st0{fill:#FFFFFF;}
</style>
<path class="st0" d="M1,12.9h12.8V1.3H1V12.9z M1,58.5h12.8V20.1H1V58.5z M118.4,34.8c0.2-2.6,1.4-7.4,7-7.4c6,0,7.1,4.4,7.2,7.4
	H118.4z M174.6,38.9c0,0,11.2-17.6,11.9-18.8h-13.8c-0.2,0.4-6.5,12.2-6.5,12.2s-5.7-11.7-6-12.2h-15.1c0.7,1.1,12,18.8,12,18.8
	l-7.1,10.8c-11.3,0.4-15,0.4-18.5,0.4l-1.1,0c-7.3,0-11.7-1.8-12.5-7.1l-0.1-0.4h27.1v-2.1c0-6.5-1.9-21.6-19.4-21.6
	c-12.4,0-20.6,7.8-20.6,20c0,11.9,9,20.1,22.4,20.1l12.6-0.2l12-0.3h7.3c0.2-0.4,6.7-12.7,6.7-12.7s5.6,12.3,5.8,12.7h15.3
	C186.7,57.4,174.6,38.9,174.6,38.9 M94.2,20.1L86,47.7L85.5,49c0,0-8.2-28.3-8.4-28.9H63.5c0.4,1,14,37.9,14.2,38.4h14.9
	c0.2-0.5,13.7-37.4,14.1-38.4H94.2z M49.7,20.2L34,20.1H22v38.4h12.9V29.1h9c6.2,0,6.2,5.6,6.3,10.8v18.6h12.7V39.9
	C62.9,23.5,57.7,20.2,49.7,20.2"/>
<path class="st0" d="M193.2,8.6c3.1,0,5.8,2.5,5.8,5.8c0,3.3-2.6,5.8-5.8,5.8c-3.1,0-5.8-2.5-5.8-5.8C187.5,11,190.1,8.6,193.2,8.6
	 M193.2,19.3c2.6,0,4.7-2.1,4.7-4.9c0-2.8-2.1-4.9-4.7-4.9c-2.7,0-4.7,2.1-4.7,4.9C188.5,17.1,190.6,19.3,193.2,19.3 M191,10.9h2.5
	c1.6,0,2.4,0.6,2.4,1.9c0,1.2-0.8,1.7-1.8,1.9l1.9,3H195l-1.8-2.9H192v2.9h-1V10.9z M192,14h1.1c0.9,0,1.8,0,1.8-1.1
	c0-0.9-0.8-1-1.5-1H192V14z"/>
</svg>
