<?xml version="1.0" encoding="utf-8"?>

<svg version="1.1" id="Layer_1" xmlns="http://www.w3.org/2000/svg" xmlns:xlink="http://www.w3.org/1999/xlink" x="0px" y="0px"
	 viewBox="0 0 315.9 133.5" style="enable-background:new 0 0 315.9 133.5;" xml:space="preserve">
<style type="text/css">
	.st0{fill:url(#SVGID_1_);}
	.st1{fill:url(#SVGID_2_);}
	.st2{fill:url(#SVGID_3_);}
</style>
<g>
	<g>
		<radialGradient id="SVGID_1_" cx="216.334" cy="25.6435" r="75.832" gradientUnits="userSpaceOnUse">
			<stop  offset="0" style="stop-color:#FFFFFF"/>
			<stop  offset="1" style="stop-color:#28903B"/>
		</radialGradient>
		<path class="st0" d="M253.8,66.7c0,31.5-25.6,57.1-57.1,57.1c-31.5,0-57.1-25.6-57.1-57.1c0-31.5,25.6-57.1,57.1-57.1
			C228.2,9.6,253.8,35.2,253.8,66.7z"/>
		<radialGradient id="SVGID_2_" cx="135.4338" cy="25.6435" r="75.832" gradientUnits="userSpaceOnUse">
			<stop  offset="0" style="stop-color:#FFFFFF"/>
			<stop  offset="1" style="stop-color:#28903B"/>
		</radialGradient>
		<path class="st1" d="M172.9,66.7c0,31.5-25.6,57.1-57.1,57.1c-31.5,0-57.1-25.6-57.1-57.1c0-31.5,25.6-57.1,57.1-57.1
			C147.3,9.6,172.9,35.2,172.9,66.7z"/>
		<radialGradient id="SVGID_3_" cx="171.4637" cy="37.9648" r="56.2971" gradientUnits="userSpaceOnUse">
			<stop  offset="0" style="stop-color:#FFFFFF"/>
			<stop  offset="1" style="stop-color:#28903B"/>
		</radialGradient>
		<path class="st2" d="M199.2,68.5c0,23.4-19,42.4-42.4,42.4c-23.4,0-42.4-19-42.4-42.4c0-23.4,19-42.4,42.4-42.4
			C180.3,26.1,199.2,45.1,199.2,68.5z"/>
	</g>
	<g>
		<polygon points="272.8,81.3 272.8,76.2 253.6,76.2 253.6,70.1 267.2,70.1 267.2,65 253.6,65 253.6,61.5 272.8,61.5 272.8,55.7 
			241.9,55.7 241.9,81.3 		"/>
		<polygon points="289,81.3 289,70.1 302.7,70.1 302.7,65 289,65 289,61.5 308.2,61.5 308.2,55.7 277.3,55.7 277.3,81.3 		"/>
		<path d="M204.2,72.7H215c0.2,1.2,0.7,1.6,1.4,2.2c1.2,1,2.8,1.5,5,1.5c1.6,0,2.9-0.3,3.8-0.8c0.9-0.5,1.3-1.1,1.3-1.8
			c0-0.6-0.4-1.2-1.3-1.7c-0.8-0.5-2.8-1-5.8-1.4c-5-0.8-8.5-1.8-10.7-3c-2.1-1.2-3.2-2.8-3.2-4.8c0-1.3,0.5-2.5,1.6-3.6
			c1.1-1.1,2.7-2,4.9-2.7c2.2-0.6,5.2-1,9-1c4.7,0,8.3,0.6,10.7,1.8c2.5,1.2,3.9,3,4.4,5.6h-10.7c-0.3-1.1-0.9-1.5-1.8-2
			c-0.9-0.5-2.2-0.8-3.8-0.8c-1.3,0-2.3,0.2-3,0.6c-0.7,0.4-1,0.8-1,1.4c0,0.4,0.3,0.7,0.8,1.1c0.5,0.3,1.8,0.6,3.8,0.9
			c5,0.7,8.5,1.4,10.7,2.2c2.1,0.7,3.7,1.7,4.7,2.7c1,1.1,1.5,2.3,1.5,3.7c0,1.6-0.7,3-2,4.4c-1.3,1.3-3.1,2.4-5.5,3
			c-2.3,0.7-5.3,1-8.8,1c-6.3,0-10.6-0.8-13-2.4C205.9,77.2,204.5,75.2,204.2,72.7z"/>
		<path d="M33.3,71.9h11.5c-0.7,1.9-1.8,4-3.3,5.2C40,78.4,38.2,79.3,36,80c-2.2,0.6-5,0.9-8.4,0.9c-4.1,0-7.5-0.4-10.2-1.2
			c-2.6-0.8-4.9-2.1-6.8-4.1c-1.9-1.9-2.9-4.4-2.9-7.5c0-4,1.7-7.1,5-9.3c3.4-2.2,8.1-3.3,14.2-3.3c4.8,0,8.6,0.6,11.3,1.9
			c2.7,1.2,5,4.4,6.3,7L34,64.8c-0.4-0.7-0.7-1.3-1.1-1.6c-0.7-0.6-1.5-1-2.4-1.3c-1-0.3-2-0.5-3.2-0.5c-2.7,0-4.7,0.7-6.1,2.1
			c-1.1,1-1.6,2.6-1.6,4.8c0,2.7,0.6,4.6,1.9,5.6c1.3,1,3.1,1.5,5.4,1.5c2.3,0,4.1-0.2,5.1-1.2C33.2,72.8,32.8,73.5,33.3,71.9z"/>
		<path d="M47.7,68.4c0-4,1.6-7.2,4.9-9.4c3.3-2.3,7.8-3.4,13.6-3.4c6,0,10.6,1.1,13.8,3.3c3.2,2.2,4.8,5.3,4.8,9.3
			c0,2.9-0.7,5.3-2.1,7.1c-1.4,1.9-3.5,3.3-6.1,4.3c-2.7,1-6,1.5-10,1.5c-4,0-7.4-0.4-10-1.3c-2.6-0.9-4.8-2.3-6.4-4.2
			C48.5,73.7,47.7,71.3,47.7,68.4z M58.8,68.5c0,2.5,0.7,4.3,2,5.4c1.3,1.1,3.2,1.6,5.5,1.6c2.4,0,4.2-0.5,5.5-1.6
			c1.3-1.1,2-3,2-5.7c0-2.3-0.7-4-2-5.1c-1.4-1.1-3.2-1.6-5.5-1.6c-2.2,0-4,0.5-5.4,1.6C59.5,64.1,58.8,65.9,58.8,68.5z"/>
		<path d="M90.4,56h9.8l12.8,14V56h9.8v25.2h-9.8l-12.7-13.9v13.9h-9.8V56z"/>
		<path d="M128.7,55.9h16.9c3.3,0,6,0.3,8,0.9c2,0.6,3.7,1.5,5.1,2.7c1.3,1.2,2.3,2.5,2.9,4.1c0.6,1.5,0.9,3.2,0.9,4.9
			c0,2.7-0.4,4.8-1.3,6.3c-0.9,1.5-2.1,2.7-3.7,3.8c-1.6,1-3.3,1.7-5.1,2c-2.5,0.5-4.7,0.7-6.8,0.7h-16.9V55.9z M140.1,61.6v13.9
			h2.8c2.4,0,4.1-0.2,5.1-0.5c1-0.4,1.8-1,2.4-1.9c0.6-0.9,0.9-2.4,0.9-4.4c0-2.7-0.6-4.5-1.9-5.5c-1.3-1-3.4-1.5-6.3-1.5H140.1z"/>
		<path d="M189,55.9h10.5v14.9c0,1.5-0.3,2.9-0.9,4.2c-0.6,1.3-1.6,2.5-2.9,3.4c-1.3,1-2.7,1.7-4.2,2.1c-2,0.6-4.5,0.8-7.4,0.8
			c-1.7,0-3.5-0.1-5.4-0.3c-2-0.2-3.6-0.5-4.9-1c-1.3-0.5-2.5-1.2-3.6-2.2c-1.1-0.9-1.8-1.9-2.2-2.9c-0.7-1.6-1-3-1-4.2V55.9h10.5
			v15.2c0,1.4,0.5,2.4,1.6,3.2c1,0.8,2.5,1.1,4.3,1.1c1.8,0,3.2-0.4,4.3-1.1c1-0.8,1.5-1.8,1.5-3.2V55.9z"/>
	</g>
</g>
</svg>
