<?xml version="1.0" encoding="utf-8"?>
<!-- Generator: Adobe Illustrator 15.0.0, SVG Export Plug-In . SVG Version: 6.00 Build 0)  -->
<!DOCTYPE svg PUBLIC "-//W3C//DTD SVG 1.1//EN" "http://www.w3.org/Graphics/SVG/1.1/DTD/svg11.dtd">
<svg version="1.1" id="Capa_1" xmlns="http://www.w3.org/2000/svg" xmlns:xlink="http://www.w3.org/1999/xlink" x="0px" y="0px"
	 width="200px" height="200px" viewBox="0 0 200 200" enable-background="new 0 0 200 200" xml:space="preserve">
<g>
	<path fill="#4C4948" d="M194.069,182.831c0,6.506-7.65,14.154-14.151,14.154H15.32c-6.505,0-13.56-7.056-13.56-13.56V19.038
		c0-9.111,8.76-15.652,16.122-15.652l162.035-0.371c6.501,0,14.151,7.647,14.151,14.152V182.831z"/>
	<path fill="#52595B" d="M184.995,164.96c0,10.221-8.287,18.508-18.508,18.508H33.967c-10.223,0-18.508-8.287-18.508-18.508V34.265
		c0-10.223,8.285-18.51,18.508-18.51h132.521c10.221,0,18.508,8.287,18.508,18.51V164.96z"/>
	<path fill="#797D7F" d="M184.995,79.438c-3.975,5.833-58.109,10.978-68.33,10.978H76.924c-10.221,0-49.835-1.583-61.465-9.758
		V34.265c0-10.223,8.285-18.51,18.508-18.51h132.521c10.221,0,18.508,8.287,18.508,18.51V79.438z"/>
	<g>
		<defs>
			<path id="SVGID_1_" d="M12.279,168.238V31.512c0-10.222,9.02-19.064,19.239-19.064h138.434c10.219,0,18.505,8.288,18.505,18.509
				v137.282c0,10.224-8.286,18.508-18.505,18.508H30.787C20.564,186.746,12.279,178.462,12.279,168.238 M22.047,3.015
				c-12.343,0-16.122,4.938-16.122,14.051v166.36c0,6.504,7.057,13.56,13.56,13.56h164.599c6.504,0,14.156-7.648,14.156-14.154
				V17.167c0-6.505-7.652-14.152-14.156-14.152H22.047z"/>
		</defs>
		<clipPath id="SVGID_2_">
			<use xlink:href="#SVGID_1_"  overflow="visible"/>
		</clipPath>
		
			<linearGradient id="SVGID_3_" gradientUnits="userSpaceOnUse" x1="-204.792" y1="497.0098" x2="-204.1982" y2="497.0098" gradientTransform="matrix(0 -326.7983 -326.7983 0 162523.875 -66728.625)">
			<stop  offset="0" style="stop-color:#5C5B5A"/>
			<stop  offset="0.0702" style="stop-color:#D0CECF"/>
			<stop  offset="0.1569" style="stop-color:#FFFFFF"/>
			<stop  offset="0.329" style="stop-color:#FFFFFF"/>
			<stop  offset="0.4049" style="stop-color:#CBC9CA"/>
			<stop  offset="0.5021" style="stop-color:#979899"/>
			<stop  offset="0.6568" style="stop-color:#FFFFFF"/>
			<stop  offset="0.81" style="stop-color:#979899"/>
			<stop  offset="1" style="stop-color:#CBC9CA"/>
		</linearGradient>
		<rect x="5.925" y="3.015" clip-path="url(#SVGID_2_)" fill="url(#SVGID_3_)" width="192.314" height="193.971"/>
	</g>
	<g>
		<defs>
			<path id="SVGID_4_" d="M15.452,164.96V34.265c0-10.223,8.286-18.51,18.509-18.51h132.521c10.219,0,18.508,8.287,18.508,18.51
				V164.96c0,10.221-8.289,18.508-18.508,18.508H33.961C23.738,183.468,15.452,175.181,15.452,164.96 M31.513,12.448
				c-10.221,0-19.239,8.842-19.239,19.064v136.726c0,10.224,8.287,18.508,18.508,18.508h139.164c10.223,0,18.51-8.284,18.51-18.508
				V30.957c0-10.221-8.287-18.509-18.51-18.509H31.513z"/>
		</defs>
		<clipPath id="SVGID_5_">
			<use xlink:href="#SVGID_4_"  overflow="visible"/>
		</clipPath>
		
			<linearGradient id="SVGID_6_" gradientUnits="userSpaceOnUse" x1="-204.7983" y1="496.9961" x2="-204.2046" y2="496.9961" gradientTransform="matrix(0 293.6528 293.6528 0 -145843.9375 60152.0664)">
			<stop  offset="0" style="stop-color:#5C5B5A"/>
			<stop  offset="0.1698" style="stop-color:#FFFFFF"/>
			<stop  offset="0.396" style="stop-color:#D0CECF"/>
			<stop  offset="0.5443" style="stop-color:#FFFFFF"/>
			<stop  offset="0.6825" style="stop-color:#CBC9CA"/>
			<stop  offset="0.8363" style="stop-color:#5C5B5A"/>
			<stop  offset="1" style="stop-color:#8A8A8A"/>
		</linearGradient>
		<rect x="12.273" y="12.448" clip-path="url(#SVGID_5_)" fill="url(#SVGID_6_)" width="176.182" height="174.298"/>
	</g>
	<path fill="#FFFFFF" d="M76.854,130.463c0.664-0.416,1.454-0.715,2.372-0.715c2.062,0,2.895,1.073,2.895,3.144v3.141
		c0,0.861,0.029,1.266,0.058,1.488h-1.243v-0.983h-0.029c-0.31,0.462-0.866,1.16-2.079,1.16c-1.555,0-2.397-0.712-2.397-2.366
		c0-1.904,1.834-2.5,3.205-2.5c0.522,0,0.637,0,1.16,0.03c0-1.312-0.453-1.98-1.779-1.98c-0.748,0-1.554,0.297-2.091,0.774
		L76.854,130.463z M80.794,133.902c-0.283,0-0.564-0.03-0.847-0.03c-0.722,0-2.501,0.119-2.501,1.459
		c0,0.804,0.736,1.236,1.342,1.236c1.313,0,2.006-0.864,2.006-1.994V133.902z"/>
	<path fill="#FFFFFF" d="M126.49,130.481c0.662-0.416,1.454-0.715,2.371-0.715c2.063,0,2.895,1.071,2.895,3.141v3.143
		c0,0.862,0.027,1.267,0.06,1.489h-1.245v-0.983h-0.027c-0.313,0.462-0.866,1.162-2.081,1.162c-1.554,0-2.398-0.717-2.398-2.368
		c0-1.907,1.835-2.502,3.207-2.502c0.521,0,0.636,0,1.157,0.03c0-1.31-0.45-1.979-1.777-1.979c-0.747,0-1.554,0.297-2.089,0.771
		L126.49,130.481z M130.428,133.921c-0.28,0-0.563-0.03-0.845-0.03c-0.722,0-2.5,0.119-2.5,1.459c0,0.804,0.735,1.235,1.342,1.235
		c1.314,0,2.003-0.863,2.003-1.994V133.921z"/>
	<path fill="#FFFFFF" d="M163.579,130.481c0.661-0.416,1.452-0.715,2.371-0.715c2.059,0,2.895,1.071,2.895,3.141v3.143
		c0,0.862,0.027,1.267,0.055,1.489h-1.24v-0.983h-0.03c-0.31,0.462-0.866,1.162-2.081,1.162c-1.556,0-2.396-0.717-2.396-2.368
		c0-1.907,1.836-2.502,3.203-2.502c0.523,0,0.639,0,1.162,0.03c0-1.31-0.455-1.979-1.78-1.979c-0.747,0-1.551,0.297-2.089,0.771
		L163.579,130.481z M167.517,133.921c-0.285,0-0.565-0.03-0.848-0.03c-0.719,0-2.502,0.119-2.502,1.459
		c0,0.804,0.737,1.235,1.344,1.235c1.313,0,2.006-0.863,2.006-1.994V133.921z"/>
	<path fill="#FFFFFF" d="M32.402,68.195H53.11c5.644,0,10.409,1.626,12.794,4.877c1.4,1.92,2.1,4.139,2.1,6.651
		c0,2.934-1.865,5.787-3.584,7.666c-0.89,0.993-2.923,1.9-4.596,2.723c2.455,0.907,4.292,1.932,5.511,3.073
		c2.152,2.025,4.234,4.378,4.234,7.945c0,3.001-0.974,5.714-2.921,8.14c-2.907,3.633-7.534,5.447-13.875,5.447H32.402V68.195z
		 M50.685,87.861c2.77,0,4.921-0.368,6.458-1.107c2.415-1.161,4.184-3.25,4.184-6.27c0-3.042-1.846-5.456-4.414-6.512
		c-1.449-0.592-3.603-0.888-6.457-0.888H38.759v14.777H50.685z M52.878,109.759c4.017,0,6.879-1.543,8.59-3.783
		c1.075-1.415,1.612-3.122,1.612-5.13c0-3.377-1.568-5.678-4.706-6.903c-1.667-0.655-3.871-1.525-6.614-1.525H38.759v17.342H52.878z
		"/>
	<path fill="#FFFFFF" d="M82.925,80.989v21.398c0,1.782,0.272,3.238,0.824,4.369c1.016,2.086,2.909,3.129,5.684,3.129
		c3.978,0,9.515-2.849,9.515-4.79c0-2.653-0.028-5.327-0.028-8.739V80.989h6.286v33.491h-5.96l0.063-5.507
		c-0.747,1.325-1.857,2.446-2.968,3.356c-2.195,1.826-4.861,2.74-7.997,2.74c-4.884,0-8.212-1.663-9.979-4.987
		c-0.961-1.782-1.44-4.163-1.44-7.14V80.989H82.925z"/>
	<path fill="#FFFFFF" d="M116.835,80.543h5.575v6.032c0.457-1.172,2.169-2.602,3.952-4.288c1.782-1.684,3.836-2.526,6.161-2.526
		c0.105,0,0.294,0.013,0.554,0.031c0.262,0.023,0.707,0.066,1.339,0.132v6.195c-0.349-0.065-0.671-0.109-0.965-0.131
		c-0.294-0.021-0.613-0.032-0.96-0.032c-2.957,0-5.229,0.951-6.814,2.853c-1.589,1.903-2.439,4.091-2.439,6.569v19.339h-6.402
		V80.543z"/>
	<path fill="#FFFFFF" d="M165.41,83.669c-3.256-2.915-7.234-4.371-11.946-4.371c-5.254,0-9.442,1.689-12.56,5.066
		c-3.118,3.378-4.678,7.917-4.678,13.616c0,5.321,1.479,9.558,4.438,12.714s6.952,4.732,11.98,4.732
		c6.031,0,10.479-1.783,13.344-5.351c2.869-3.565,4.301-8.084,4.301-13.552C170.29,90.867,168.665,86.581,165.41,83.669
		 M161.571,106.229c-1.507,2.857-4.292,4.286-8.347,4.286c-3.691,0-6.389-1.203-8.089-3.606c-1.697-2.405-2.55-5.413-2.55-9.023
		c0-3.756,0.853-6.963,2.55-9.623c1.7-2.66,4.418-3.988,8.155-3.988c4.216,0,7.185,1.561,8.905,4.685
		c1.089,1.984,1.631,4.558,1.631,7.724C163.827,100.186,163.076,103.368,161.571,106.229"/>
	<polygon fill="#FFFFFF" points="162.594,65.436 152.598,76.643 148.1,76.643 155.356,65.436 	"/>
	<path fill="#FFFFFF" d="M28.548,127.307c1.474,0,2.607,0.406,3.402,1.225c0.795,0.815,1.191,2.061,1.191,3.732
		c0,0.876-0.087,1.65-0.268,2.325c-0.177,0.676-0.455,1.245-0.829,1.707c-0.376,0.46-0.854,0.813-1.435,1.057
		c-0.58,0.244-1.268,0.363-2.063,0.363h-3.282v-10.409H28.548z M28.654,136.551c0.142,0,0.322-0.012,0.537-0.036
		c0.215-0.025,0.441-0.083,0.684-0.175c0.241-0.095,0.479-0.228,0.717-0.402c0.236-0.175,0.449-0.411,0.637-0.715
		c0.186-0.301,0.341-0.678,0.459-1.13c0.121-0.452,0.183-0.997,0.183-1.638c0-0.625-0.057-1.181-0.168-1.673
		c-0.112-0.489-0.294-0.907-0.55-1.252c-0.254-0.345-0.582-0.608-0.984-0.788c-0.401-0.179-0.895-0.269-1.486-0.269H26.54v8.077
		H28.654z"/>
	<path fill="#FFFFFF" d="M33.426,133.819c0-2.178,1.4-3.791,3.36-3.791c1.855,0,2.937,1.294,2.937,3.35
		c0,0.185-0.017,0.365-0.03,0.563H34.81c0.045,1.461,0.653,2.711,2.221,2.711c1.004,0,1.672-0.443,1.991-0.625l0.504,0.944
		c-0.396,0.257-1.203,0.744-2.557,0.744C34.627,137.716,33.426,136.027,33.426,133.819 M38.429,132.951
		c-0.03-0.988-0.471-1.872-1.673-1.872c-1.11,0-1.718,0.776-1.901,1.872H38.429z"/>
	<path fill="#FFFFFF" d="M90.221,133.819c0-2.178,1.398-3.791,3.361-3.791c1.854,0,2.934,1.294,2.934,3.35
		c0,0.185-0.017,0.365-0.03,0.563h-4.881c0.045,1.461,0.653,2.711,2.221,2.711c1.002,0,1.673-0.443,1.992-0.625l0.502,0.944
		c-0.396,0.257-1.202,0.744-2.556,0.744C91.421,137.716,90.221,136.027,90.221,133.819 M95.224,132.951
		c-0.03-0.988-0.473-1.872-1.673-1.872c-1.109,0-1.72,0.776-1.901,1.872H95.224z"/>
	<path fill="#FFFFFF" d="M151.21,133.819c0-2.178,1.401-3.791,3.363-3.791c1.854,0,2.937,1.294,2.937,3.35
		c0,0.185-0.019,0.365-0.032,0.563h-4.882c0.043,1.461,0.654,2.711,2.222,2.711c1.001,0,1.672-0.443,1.989-0.625l0.505,0.944
		c-0.397,0.257-1.203,0.744-2.557,0.744C152.414,137.716,151.21,136.027,151.21,133.819 M156.214,132.951
		c-0.03-0.988-0.469-1.872-1.673-1.872c-1.109,0-1.718,0.776-1.902,1.872H156.214z"/>
	<polygon fill="#FFFFFF" points="45.355,127.235 50.808,127.235 50.808,128.437 46.68,128.437 46.68,131.616 50.524,131.616 
		50.524,132.802 46.68,132.802 46.68,136.567 51.072,136.567 51.072,137.619 45.355,137.619 	"/>
	<path fill="#FFFFFF" d="M52.383,130.125h1.347v1.046c0.659-0.795,1.526-1.229,2.507-1.229c1.639,0,2.279,1.041,2.279,2.351v5.327
		h-1.364v-5.063c0-0.902-0.32-1.463-1.302-1.463c-0.834,0-1.605,0.622-2.12,1.293v5.233h-1.347V130.125z"/>
	<path fill="#FFFFFF" d="M118.491,130.125h1.351v1.046c0.657-0.795,1.523-1.229,2.504-1.229c1.639,0,2.284,1.041,2.284,2.351v5.327
		h-1.369v-5.063c0-0.902-0.319-1.463-1.301-1.463c-0.834,0-1.605,0.622-2.118,1.293v5.233h-1.351V130.125z"/>
	<path fill="#FFFFFF" d="M133.653,130.125h1.349v1.046c0.659-0.795,1.528-1.229,2.507-1.229c1.641,0,2.281,1.041,2.281,2.351v5.327
		h-1.367v-5.063c0-0.902-0.321-1.463-1.3-1.463c-0.832,0-1.608,0.622-2.121,1.293v5.233h-1.349V130.125z"/>
	<path fill="#FFFFFF" d="M63.858,130.139v1.094H61.91v4.683c0,0.145,0.011,0.262,0.032,0.349c0.023,0.088,0.064,0.156,0.128,0.202
		c0.063,0.051,0.15,0.083,0.262,0.097s0.256,0.022,0.435,0.022h1.092v1.094h-1.44c-0.295,0-0.548-0.022-0.757-0.066
		c-0.21-0.044-0.38-0.124-0.51-0.241c-0.128-0.115-0.223-0.28-0.286-0.496c-0.063-0.214-0.095-0.496-0.095-0.846v-4.797h-1.178
		v-1.094h1.178v-2.993h1.14v2.993H63.858z"/>
	<path fill="#FFFFFF" d="M65.052,127.849c0-0.503,0.382-0.898,0.869-0.898c0.484,0,0.868,0.396,0.868,0.898
		c0,0.487-0.384,0.898-0.868,0.898C65.434,128.747,65.052,128.336,65.052,127.849 M65.287,130.04h1.267v7.579h-1.267V130.04z"/>
	<path fill="#FFFFFF" d="M114.928,127.849c0-0.503,0.382-0.898,0.868-0.898c0.485,0,0.869,0.396,0.869,0.898
		c0,0.487-0.384,0.898-0.869,0.898C115.31,128.747,114.928,128.336,114.928,127.849 M115.164,130.04h1.264v7.579h-1.264V130.04z"/>
	<path fill="#FFFFFF" d="M148.081,127.849c0-0.503,0.386-0.898,0.868-0.898c0.487,0,0.871,0.396,0.871,0.898
		c0,0.487-0.384,0.898-0.871,0.898C148.467,128.747,148.081,128.336,148.081,127.849 M148.32,130.04h1.264v7.579h-1.264V130.04z"/>
	<path fill="#FFFFFF" d="M73.74,137.555v-1.02h-0.026c-0.187,0.418-0.483,0.721-0.886,0.905c-0.399,0.184-0.843,0.275-1.326,0.275
		c-0.535,0-1.002-0.105-1.398-0.319c-0.396-0.214-0.728-0.501-0.991-0.861c-0.263-0.358-0.463-0.776-0.597-1.255
		c-0.134-0.476-0.2-0.98-0.2-1.516c0-0.533,0.063-1.039,0.195-1.517c0.128-0.476,0.324-0.892,0.587-1.245
		c0.266-0.356,0.595-0.639,0.991-0.846c0.398-0.209,0.86-0.314,1.389-0.314c0.179,0,0.369,0.021,0.574,0.058
		c0.206,0.041,0.411,0.105,0.617,0.197s0.399,0.216,0.581,0.365c0.186,0.149,0.339,0.338,0.464,0.561h0.026v-4.489h1.14v11.021
		H73.74z M69.647,134.881c0.085,0.335,0.215,0.634,0.39,0.896c0.173,0.265,0.396,0.474,0.671,0.628
		c0.271,0.156,0.59,0.234,0.957,0.234c0.384,0,0.708-0.083,0.977-0.249c0.269-0.165,0.486-0.381,0.655-0.649
		c0.172-0.267,0.294-0.57,0.37-0.91s0.114-0.687,0.114-1.036c0-0.37-0.041-0.726-0.121-1.07c-0.081-0.347-0.208-0.65-0.383-0.912
		c-0.173-0.262-0.399-0.474-0.675-0.634c-0.278-0.161-0.613-0.241-1.004-0.241c-0.385,0-0.711,0.082-0.979,0.248
		c-0.269,0.165-0.484,0.384-0.645,0.657c-0.16,0.271-0.276,0.581-0.348,0.933c-0.07,0.349-0.106,0.71-0.106,1.079
		C69.521,134.203,69.563,134.545,69.647,134.881"/>
	<path fill="#FFFFFF" d="M88.179,137.555v-1.02H88.15c-0.187,0.418-0.48,0.721-0.884,0.905c-0.401,0.184-0.845,0.275-1.326,0.275
		c-0.535,0-1.001-0.105-1.397-0.319c-0.398-0.214-0.73-0.501-0.991-0.861c-0.266-0.358-0.463-0.776-0.598-1.255
		c-0.135-0.476-0.201-0.98-0.201-1.516c0-0.533,0.064-1.039,0.194-1.517c0.13-0.476,0.326-0.892,0.589-1.245
		c0.264-0.356,0.595-0.639,0.992-0.846c0.397-0.209,0.86-0.314,1.386-0.314c0.179,0,0.371,0.021,0.577,0.058
		c0.203,0.041,0.408,0.105,0.614,0.197c0.208,0.092,0.399,0.216,0.585,0.365c0.182,0.149,0.336,0.338,0.46,0.561h0.028v-4.489h1.138
		v11.021H88.179z M84.087,134.881c0.085,0.335,0.212,0.634,0.387,0.896c0.175,0.265,0.398,0.474,0.671,0.628
		c0.272,0.156,0.592,0.234,0.957,0.234c0.384,0,0.71-0.083,0.979-0.249c0.267-0.165,0.485-0.381,0.656-0.649
		c0.17-0.267,0.293-0.57,0.367-0.91c0.076-0.34,0.116-0.687,0.116-1.036c0-0.37-0.041-0.726-0.121-1.07
		c-0.081-0.347-0.209-0.65-0.385-0.912c-0.172-0.262-0.397-0.474-0.673-0.634c-0.277-0.161-0.613-0.241-1.006-0.241
		c-0.384,0-0.71,0.082-0.977,0.248c-0.269,0.165-0.483,0.384-0.645,0.657c-0.159,0.271-0.276,0.581-0.347,0.933
		c-0.072,0.349-0.109,0.71-0.109,1.079C83.958,134.203,84.002,134.545,84.087,134.881"/>
	<path fill="#FFFFFF" d="M97.195,137.018l0.516-0.961c0.265,0.198,0.912,0.596,1.75,0.596c0.854,0,1.384-0.352,1.384-0.977
		c0-0.639-0.574-0.898-1.604-1.369c-1.09-0.487-1.884-1.021-1.884-2.238c0-1.171,0.884-2.056,2.325-2.056
		c1.177,0,1.898,0.489,2.134,0.671l-0.558,0.928c-0.251-0.197-0.795-0.532-1.562-0.532c-0.75,0-1.148,0.351-1.148,0.93
		c0,0.652,0.589,0.912,1.383,1.248c1.134,0.503,2.15,1.018,2.15,2.254c0,1.369-1.001,2.205-2.59,2.205
		C98.432,137.716,97.637,137.337,97.195,137.018"/>
	<path fill="#FFFFFF" d="M170.248,137.018l0.513-0.961c0.267,0.198,0.914,0.596,1.753,0.596c0.854,0,1.383-0.352,1.383-0.977
		c0-0.639-0.572-0.898-1.605-1.369c-1.087-0.487-1.882-1.021-1.882-2.238c0-1.171,0.882-2.056,2.325-2.056
		c1.178,0,1.899,0.489,2.134,0.671l-0.561,0.928c-0.248-0.197-0.795-0.532-1.558-0.532c-0.754,0-1.148,0.351-1.148,0.93
		c0,0.652,0.588,0.912,1.383,1.248c1.135,0.503,2.15,1.018,2.15,2.254c0,1.369-1.002,2.205-2.592,2.205
		C171.481,137.716,170.688,137.337,170.248,137.018"/>
	<polygon fill="#FFFFFF" points="108.442,127.04 113.681,127.04 113.681,128.248 109.782,128.248 109.782,131.742 113.497,131.742 
		113.497,132.917 109.782,132.917 109.782,137.619 108.442,137.619 	"/>
	<path fill="#FFFFFF" d="M145.207,131.104c-0.287-0.271-0.669-0.406-1.151-0.406c-0.411,0-0.756,0.085-1.031,0.255
		c-0.277,0.173-0.498,0.397-0.664,0.68c-0.165,0.283-0.28,0.607-0.354,0.975s-0.105,0.747-0.105,1.14
		c0,0.362,0.036,0.717,0.112,1.057c0.076,0.342,0.193,0.647,0.356,0.914c0.16,0.267,0.367,0.48,0.629,0.642
		c0.258,0.16,0.565,0.241,0.922,0.241c0.563,0,1.004-0.166,1.32-0.499c0.317-0.333,0.511-0.8,0.584-1.403h1.162
		c-0.124,0.967-0.44,1.711-0.955,2.235c-0.515,0.521-1.214,0.783-2.096,0.783c-0.528,0-0.995-0.095-1.401-0.285
		c-0.406-0.192-0.744-0.464-1.02-0.817c-0.271-0.35-0.479-0.772-0.614-1.259c-0.14-0.487-0.209-1.025-0.209-1.608
		c0-0.584,0.067-1.131,0.202-1.639c0.134-0.507,0.336-0.95,0.609-1.327c0.273-0.379,0.613-0.674,1.026-0.892
		c0.409-0.216,0.887-0.324,1.432-0.324c0.393,0,0.761,0.051,1.105,0.159c0.344,0.105,0.647,0.269,0.909,0.489
		c0.265,0.223,0.48,0.501,0.652,0.838c0.168,0.338,0.276,0.737,0.319,1.202h-1.179C145.683,131.757,145.492,131.377,145.207,131.104
		"/>
	<path fill="#FFFFFF" d="M159.097,130.061h1.14v1.306c0.095-0.256,0.321-0.563,0.687-0.929c0.363-0.362,0.784-0.544,1.26-0.544
		c0.022,0,0.06,0.002,0.11,0.007c0.055,0.004,0.146,0.014,0.275,0.027v1.339c-0.073-0.016-0.138-0.024-0.197-0.029
		c-0.061-0.005-0.125-0.005-0.195-0.005c-0.604,0-1.068,0.205-1.391,0.616c-0.326,0.408-0.486,0.882-0.486,1.419v4.338h-1.202
		V130.061z"/>
	<rect x="23.171" y="139.469" fill="#A9A8A8" width="156.356" height="1.697"/>
</g>
</svg>